<?xml version="1.0" encoding="utf-8"?>
<!-- Generator: Adobe Illustrator 26.5.0, SVG Export Plug-In . SVG Version: 6.00 Build 0)  -->
<svg version="1.1" xmlns="http://www.w3.org/2000/svg" xmlns:xlink="http://www.w3.org/1999/xlink" x="0px" y="0px"
	 viewBox="0 0 5000 5000" style="enable-background:new 0 0 5000 5000;" xml:space="preserve">
<style type="text/css">
	.st0{fill:#EBE9EA;}
	.st1{fill:#FFFFFF;}
	.st2{fill:#A66CFF;}
	.st3{fill:#CFF500;}
</style>
<g id="Background">
	<g>
		<rect class="st0" width="5000" height="5000"/>
	</g>
</g>
<g id="Object">
	<g>
		<path class="st1" d="M3870.4,3336.8c0,0,1.7,58.1,78.1,60.9h719c0,0,43.7,1.7,38.7-30.4c-4.9-32.1-64.1-43.9-113.8-48.8
			c-20.2-2-46.6-1.9-70.5-40c-14.6-23.3-45.4-45.1-109.1-13.8c-25.8,12.7-72.7,25.1-113.7-16.1c-19.3-19.4-44.9-50.1-83.9-54.3
			c-33.8-3.7-69.9-5.6-130.8,62.9c0,0-19.7,28.5-73.6,25.9C4010.8,3282.9,3875.5,3269.4,3870.4,3336.8z"/>
		<path d="M4668.8,3407.6c-0.7,0-1.2,0-1.6,0l-719.1,0c-67.8-2.5-87-47.2-87.7-70.5l0-0.5l0-0.5c1.2-15.2,7.9-28.1,19.9-38.2
			c39.2-32.9,124.5-25.4,131.1-24.8c46.8,2.1,64.1-20.8,64.8-21.8l0.7-0.9c60.9-68.5,99.1-70.5,139.3-66.1
			c38.5,4.2,64.6,31.2,83.7,50.9c2.1,2.2,4.2,4.3,6.2,6.4c37.4,37.7,80.1,25.1,102.3,14.2c31.7-15.6,89.7-34,121.9,17.5
			c19.7,31.5,39.7,33.3,59.1,35.1c1.3,0.1,2.7,0.2,3.9,0.4c77.8,7.6,117.9,26.3,122.6,57.2c2.1,13.7-2.8,22.5-7.3,27.5
			C4696.8,3406.5,4675.5,3407.6,4668.8,3407.6z M3948.7,3387.7l719.2,0c4.8,0.2,20-0.9,26.1-7.8c1.5-1.7,3.4-4.7,2.4-11.2
			c-1.8-11.4-17.7-31.9-104.9-40.4l-3.8-0.3c-20.7-1.9-49.2-4.4-74.2-44.3c-18.3-29.2-50.7-32.6-96.3-10.2
			c-21.7,10.6-77.2,30.2-125.1-18.1c-2.1-2.1-4.2-4.3-6.4-6.5c-17.9-18.5-40.2-41.5-71.6-44.9c-29.6-3.2-63.1-6.8-122,59.3
			c-3.5,4.7-26.8,32.1-81.8,29.6l-0.5,0c-0.8-0.1-83.1-7.9-116.6,20.2c-7.8,6.5-12,14.3-12.8,23.9
			C3880.7,3342.3,3885.9,3385.3,3948.7,3387.7z"/>
	</g>
	<g>
		<g>
			<g>
				<g>
					<path d="M1420.9,4497l-8.9-19.9c15.2-6.8,1517.8-684.8,1687-831.5c72.4-62.8,183.6-123.5,330.6-180.3
						c109.1-42.2,198.4-66.4,199.3-66.6l0.8-0.2c163.3-30.7,284.7-110.8,285.9-111.6l1.4-0.9l1.6-0.5l384.8-113.3l6.2,20.9
						l-383.2,112.8c-14.8,9.7-132.2,83.8-292.1,113.9c-13.6,3.7-355,98.4-520.9,242.3C2941.6,3810.9,1482.9,4469.1,1420.9,4497z"/>
				</g>
				<g>
					<path d="M482.7,3587.5l-14.7-16.1l946.4-866.8l504.6,236.2c158.3,101.7,733.4,348.6,793.7,374.4
						c306-181.6,642-404.6,645.4-406.8l4.9-3.3l320.6,137.5h74.3l1.8,0.6l445.8,159.8l-7.4,20.5l-444-159.2h-75l-313.9-134.6
						c-43,28.4-358.6,236.6-646.1,407l-4.7,2.8l-5.1-2.2c-25.8-11-632.8-269.8-801.4-377.9l-489.5-229.1L482.7,3587.5z"/>
				</g>
				<g>
					<polygon points="2940.1,3768.7 2923.5,3754.5 3222.3,3404.5 3079.1,3346.8 3211.6,3212.4 3354.3,2912.8 3373.9,2922.1 
						3229.7,3225.1 3228.4,3226.4 3117.6,3338.8 3258.5,3395.6 					"/>
				</g>
				<g>
					<polygon points="875.7,4495 860.8,4479.1 1956.1,3456.7 2187.8,3554.1 2709,3317.4 2718,3337.3 2188.1,3577.9 1960.6,3482.3 
											"/>
				</g>
				<g>
					<path d="M2858.1,3809.8c-4.7-1.5-469.8-147.7-674.3-233.7l8.4-20.1c203.6,85.6,667.7,231.5,672.4,233L2858.1,3809.8z"/>
				</g>
				<g>
					<path d="M1549.8,4357.6l-13.4-17.1c3.1-2.4,306.3-240.5,395.1-340.5c31.5-35.5,46.2-67.9,42.4-93.8
						c-3.4-23.4-20.5-34.3-21.2-34.7l-1-0.6l-0.9-0.9c-1.4-1.3-34.1-33.5-62-74.1c-39.5-57.4-49.1-101.9-28.5-132.3
						c26.9-39.6,46.7-102.1,57.4-141.1l-312,291.3l-349-273.8l112.7-112.9l71.2-158.8c-164.4-107.5-148.9-238.6-148.2-244.2l0.3-2.2
						l90.5-150.9l22.5-154.9l21.6,3.1l-23.1,159.2l-90.3,150.6c-0.5,7.7-1.3,36.3,12.3,73.7c14.8,40.4,50,99.6,134,152.2l8,5
						l-80.5,179.7l-98.2,98.4l315,247.2l350.6-327.4l-7.2,33.9c-1,4.9-25.9,119.8-69.5,184.2c-30.8,45.5,51.7,143,87,177.8
						c5.3,3.6,25.6,19.2,30.1,48.8c5,33.1-11,70.7-47.6,112C1857.6,4115.8,1562.3,4347.7,1549.8,4357.6z"/>
				</g>
				<g>
					
						<rect x="2417.8" y="3200.9" transform="matrix(0.343 -0.9393 0.9393 0.343 -1546.8267 4479.3916)" width="21.8" height="289.2"/>
				</g>
				<g>
					
						<rect x="1914" y="2959.6" transform="matrix(0.3773 -0.9261 0.9261 0.3773 -1708.8726 3737.457)" width="21.8" height="359.8"/>
				</g>
				<g>
					
						<rect x="1491.5" y="2812.6" transform="matrix(0.5102 -0.8601 0.8601 0.5102 -1791.9017 2731.6709)" width="21.8" height="252.9"/>
				</g>
				<g>
					
						<rect x="1372.2" y="2957.3" transform="matrix(0.4877 -0.873 0.873 0.4877 -1933.595 2758.1191)" width="21.8" height="138.4"/>
				</g>
				<g>
					
						<rect x="1566" y="3186.9" transform="matrix(0.4334 -0.9012 0.9012 0.4334 -2101.2085 3304.0493)" width="21.8" height="272.2"/>
				</g>
				<g>
					
						<rect x="1418.2" y="3400.6" transform="matrix(0.4132 -0.9106 0.9106 0.4132 -2308.782 3329.3975)" width="21.8" height="111.3"/>
				</g>
				<g>
					
						<rect x="1699.2" y="3535.4" transform="matrix(0.4052 -0.9142 0.9142 0.4052 -2282.1389 3709.8362)" width="21.8" height="146.8"/>
				</g>
				<g>
					<path d="M2288.4,3702.1c-9.6-4.3-235.4-105.7-338.3-225.5l16.5-14.2c41.1,47.8,111.2,101,202.7,153.6
						c69.5,40,127.4,66,128,66.2L2288.4,3702.1z"/>
				</g>
				<g>
					<path d="M2058.2,3792c-6.5-4.1-158.7-100-185.4-135.9l17.5-13c20.1,27.1,136.4,103.3,179.5,130.4L2058.2,3792z"/>
				</g>
				<g>
					
						<rect x="2392.7" y="3831" transform="matrix(0.4091 -0.9125 0.9125 0.4091 -2172.4836 4519.6143)" width="21.8" height="212.6"/>
				</g>
				<g>
					<path d="M1650.3,4157.6l-14.7-16.1l323.6-294.9l7.3,8.3c41.5,47,197.8,115.3,199.3,116l-8.7,20
						c-6.3-2.7-146.7-64.1-199.3-113.6L1650.3,4157.6z"/>
				</g>
				<g>
					
						<rect x="2077" y="4047.3" transform="matrix(0.4876 -0.8731 0.8731 0.4876 -2523.7246 3931.7839)" width="21.8" height="137.4"/>
				</g>
				<g>
					<rect x="3382.6" y="2956" transform="matrix(0.3733 -0.9277 0.9277 0.3733 -685.9536 5048.436)" width="21.8" height="151.8"/>
				</g>
				<g>
					<path d="M2642.6,3557.7l-9.6-19.6c181.5-89.3,578.1-326.3,582.1-328.7l5-3l228.1,106.7l-9.2,19.7l-217.6-101.8
						C3174.6,3258.9,2813.8,3473.5,2642.6,3557.7z"/>
				</g>
				<g>
					
						<rect x="3736.9" y="3165.6" transform="matrix(0.4635 -0.8861 0.8861 0.4635 -897.0569 5081.5991)" width="21.8" height="232"/>
				</g>
				<g>
					<rect x="3916.8" y="3214.7" transform="matrix(0.427 -0.9043 0.9043 0.427 -698.6708 5420.5869)" width="21.8" height="93.7"/>
				</g>
				<g>
					<rect x="620.6" y="3282.3" transform="matrix(0.736 -0.677 0.677 0.736 -1993.0112 1475.4984)" width="549.6" height="21.8"/>
				</g>
				<g>
					<rect x="970.8" y="3287" transform="matrix(0.6759 -0.737 0.737 0.6759 -2046.2836 1942.7472)" width="429.7" height="21.8"/>
				</g>
				<g>
					
						<rect x="1172.7" y="3290.3" transform="matrix(0.6555 -0.7552 0.7552 0.6555 -2046.177 2116.5518)" width="248.5" height="21.8"/>
				</g>
				<g>
					
						<rect x="1067.2" y="3769.1" transform="matrix(0.635 -0.7725 0.7725 0.635 -2463.6956 2345.4243)" width="366.2" height="21.8"/>
				</g>
				<g>
					
						<rect x="1307.3" y="3794.1" transform="matrix(0.6466 -0.7629 0.7629 0.6466 -2399.4829 2430.8555)" width="232.8" height="21.8"/>
				</g>
				<g>
					
						<rect x="1490.5" y="3929.3" transform="matrix(0.7211 -0.6928 0.6928 0.7211 -2250.8577 2289.052)" width="454.4" height="21.8"/>
				</g>
				<g>
					
						<rect x="1113.2" y="4360" transform="matrix(0.7963 -0.6049 0.6049 0.7963 -2396.3423 1625.5688)" width="204.7" height="21.8"/>
				</g>
				<g>
					
						<rect x="1497.5" y="3896.9" transform="matrix(0.7259 -0.6878 0.6878 0.7259 -2248.3469 2174.3289)" width="212.2" height="21.8"/>
				</g>
				<g>
					<path d="M2839,3355.2l-9.6-19.5c223.3-110.3,452.7-271.3,455-273l12.5,17.8C3294.7,3082.2,3063.8,3244.2,2839,3355.2z"/>
				</g>
				<g>
					<path d="M2588,3726.2l-8.8-19.9c169.6-75.2,380.2-208.4,382.3-209.8l11.7,18.4C2971,3516.2,2759.1,3650.3,2588,3726.2z"/>
				</g>
				<g>
					<path d="M2717.8,3761.9l-8.6-20c43.7-18.9,177.9-111.4,179.2-112.3l12.4,17.9C2895.2,3651.4,2763.6,3742.2,2717.8,3761.9z"/>
				</g>
				<g>
					
						<rect x="2028.1" y="4322.2" transform="matrix(0.8971 -0.4417 0.4417 0.8971 -1669.6194 1495.5392)" width="697.2" height="21.8"/>
				</g>
				<g>
					
						<rect x="2609.7" y="4326.8" transform="matrix(0.8396 -0.5433 0.5433 0.8396 -1909.7549 2208.8726)" width="350.2" height="21.8"/>
				</g>
				<g>
					
						<rect x="4169.2" y="3426.7" transform="matrix(0.9115 -0.4113 0.4113 0.9115 -1038.6479 2048.7866)" width="143.4" height="21.8"/>
				</g>
			</g>
			<g>
				<path d="M1602.6,2783.8c0,0,42.5-49.5,69.7-87.3c4-12.8,8.1-24.1,8.1-24.1c-29.2,26.1-51.4,18.2-51.4,18.2
					c26.5-23,51.1-52.4,67.8-73.9c-15.2,6.1-22.6,1.7-22.6,1.7c21.7-22.8,39-54.1,49.7-76.2c-20.2,19.4-34.5,17.5-34.5,17.5
					c39.2-46,74.7-146.5,74.7-146.5c20.3,83.8,79.9,135.8,79.9,135.8c-16.1-0.4-27.2-3.4-34.8-6.9c18.5,42.4,48.7,68.3,48.7,68.3
					c-28.5,0.9-40.9-13.6-40.9-13.6c0.2,2.5,0.2,5.1,0.2,7.8c26.7,44.4,64.8,71.3,64.8,71.3c-15.6,11.7-48.3-9.5-48.3-9.5
					c1.4,2.9,2.4,6.3,3,9.8c17,28.3,49,77.1,76.9,93.9c0,0-30.2,12-55.7-13.8c0,0,9.5,36.7,7.8,49.2c0,0-32-21.1-50.1-45.3
					c0,0,6,37.1,4.7,60c0,0-13.4-10.4-27.3-22.9l16.4,100l-88-41.2l12.1-60.1c-11.2,11.8-22,24.1-25.5,31.1c0,0-7.8-35,1.7-63.5
					c0,0-44.4,33.3-54.4,49.7c0,0,5.6-39.3,15.1-55.7C1670.4,2757.5,1638,2776,1602.6,2783.8z"/>
			</g>
			<g>
				<path d="M1104.7,2977.4c0,0-35.8-41.7-58.7-73.6c-3.4-10.8-6.8-20.3-6.8-20.3c24.6,22,43.3,15.3,43.3,15.3
					c-22.3-19.4-43-44.1-57.1-62.2c12.8,5.1,19,1.4,19,1.4c-18.2-19.2-32.8-45.6-41.9-64.2c17,16.3,29,14.7,29,14.7
					c-33-38.8-62.9-123.4-62.9-123.4c-17.1,70.5-67.3,114.4-67.3,114.4c13.6-0.4,22.9-2.9,29.3-5.8c-15.6,35.7-41,57.5-41,57.5
					c24,0.8,34.5-11.4,34.5-11.4c-0.1,2.1-0.2,4.3-0.2,6.5c-22.5,37.4-54.6,60.1-54.6,60.1c13.1,9.9,40.7-8,40.7-8
					c-1.2,2.5-2,5.3-2.6,8.3c-14.3,23.9-41.3,64.9-64.7,79c0,0,25.5,10.1,46.9-11.6c0,0-8,30.9-6.6,41.5c0,0,26.9-17.8,42.2-38.2
					c0,0-5.1,31.3-4,50.5c0,0,11.3-8.8,23-19.3L934,3155.3l68.6-62.9l-8.2-104.8c9.4,9.9,18.5,20.3,21.4,26.2c0,0,6.6-29.4-1.5-53.5
					c0,0,37.4,28,45.8,41.8c0,0-4.7-33.1-12.7-46.9C1047.6,2955.3,1074.9,2970.9,1104.7,2977.4z"/>
			</g>
			<g>
				<path d="M1127.3,4229.4c0,0-42.5-49.5-69.7-87.3c-4-12.8-8.1-24.1-8.1-24.1c29.2,26.1,51.4,18.2,51.4,18.2
					c-26.5-23-51.1-52.4-67.8-73.9c15.2,6.1,22.6,1.7,22.6,1.7c-21.7-22.8-39-54.1-49.7-76.2c20.2,19.4,34.5,17.5,34.5,17.5
					c-39.2-46-74.7-146.5-74.7-146.5c-20.3,83.8-79.9,135.8-79.9,135.8c16.1-0.4,27.2-3.4,34.8-6.9c-18.5,42.4-48.7,68.3-48.7,68.3
					c28.5,0.9,40.9-13.6,40.9-13.6c-0.2,2.5-0.2,5.1-0.2,7.8c-26.7,44.4-64.8,71.3-64.8,71.3c15.6,11.7,48.3-9.5,48.3-9.5
					c-1.4,2.9-2.4,6.3-3,9.8c-17,28.3-49,77.1-76.9,93.9c0,0,30.2,12,55.7-13.8c0,0-9.5,36.7-7.8,49.2c0,0,32-21.1,50.1-45.3
					c0,0-6,37.1-4.7,60c0,0,13.4-10.4,27.3-22.9l-12.2,189.8l81.5-66.7l-9.7-124.4c11.2,11.8,22,24.1,25.5,31.1c0,0,7.8-35-1.7-63.5
					c0,0,44.4,33.3,54.4,49.7c0,0-5.6-39.3-15.1-55.7C1059.5,4203.1,1091.9,4221.6,1127.3,4229.4z"/>
			</g>
			<g>
				<path d="M3636.1,2977.9c0,0,42.5-49.5,69.7-87.3c4-12.8,8.1-24.1,8.1-24.1c-29.2,26.1-51.4,18.2-51.4,18.2
					c26.5-23,51.1-52.4,67.8-73.9c-15.2,6.1-22.6,1.7-22.6,1.7c21.7-22.8,39-54.1,49.7-76.2c-20.2,19.4-34.5,17.5-34.5,17.5
					c39.2-46,74.7-146.5,74.7-146.5c20.3,83.8,79.9,135.8,79.9,135.8c-16.1-0.4-27.2-3.4-34.8-6.9c18.5,42.4,48.7,68.3,48.7,68.3
					c-28.5,0.9-40.9-13.6-40.9-13.6c0.2,2.5,0.2,5.1,0.2,7.8c26.7,44.4,64.8,71.3,64.8,71.3c-15.6,11.7-48.3-9.5-48.3-9.5
					c1.4,2.9,2.4,6.3,3,9.8c17,28.3,49,77.1,76.9,93.9c0,0-30.2,12-55.7-13.8c0,0,9.5,36.7,7.8,49.2c0,0-32-21.1-50.1-45.3
					c0,0,6,37.1,4.7,60c0,0-13.4-10.4-27.3-22.9l12.9,85.9l-84.5-27.1l12.1-60.1c-11.2,11.8-22,24.1-25.5,31.1c0,0-7.8-35,1.7-63.5
					c0,0-44.4,33.3-54.4,49.7c0,0,5.6-39.3,15.1-55.7C3703.9,2951.5,3671.5,2970.1,3636.1,2977.9z"/>
			</g>
			<g>
				<rect x="3584.6" y="3812" transform="matrix(0.8945 -0.4471 0.4471 0.8945 -1314.215 2076.9856)" width="317.4" height="21.8"/>
			</g>
			<g>
				
					<rect x="3851.2" y="3827.1" transform="matrix(0.8919 -0.4522 0.4522 0.8919 -1285.1749 2299.0579)" width="631.4" height="21.8"/>
			</g>
			<g>
				
					<rect x="3819.7" y="4438.9" transform="matrix(0.9093 -0.4162 0.4162 0.9093 -1497.2428 2030.6813)" width="179.4" height="21.8"/>
			</g>
		</g>
		<g>
			<path class="st1" d="M742.6,1838.9c-22.6,4.1-66.7,20.5-72.6,53.2c-6.6,36.7,25.7,54.7,142,46l580.4-12c0,0,70.6,0,75.9-39.7
				c0,0,9.2-50.6-60.7-48.9c-19.4,0.5-49.6,8.6-76.6-12.7c-30.2-23.8-56.7-59.9-110-51.3c-15,2.4-24.6,1-61.1,28
				c0,0-47.3,40.7-112,14.1l-74-39.3c0,0-59-28.4-100.7-9.3c-10.7,4.9-23.2,14.6-33.9,32.7c0,0-21.4,33.3-53.4,33.3
				C786,1832.8,753.6,1836.9,742.6,1838.9z"/>
			<path d="M760.7,1951.2c-49,0-78.2-7.5-92.3-23.2c-8.8-9.8-11.8-22.5-9.1-37.8c7-38.5,54.4-57.1,81.4-62l0,0
				c11.2-2,42.6-6,43.9-6.2l1.4-0.1c24.6,0,42.7-26,44.2-28.2c12.9-21.7,28.1-32,38.6-36.8c45.9-21,107.4,8.2,110,9.4l0.4,0.2
				l73.5,39.1c57.1,23.2,98.5-11,100.3-12.5l0.6-0.5c34.8-25.6,47.6-27.4,61.3-29.3c1.5-0.2,3-0.4,4.5-0.7
				c48.6-7.8,77.2,17.5,102.4,39.8c5.5,4.9,10.7,9.5,16.1,13.7c18.6,14.6,39,12.8,57,11.2c4.4-0.4,8.6-0.8,12.6-0.9
				c27.8-0.7,48.1,6.3,60.4,20.6c14.4,16.9,11.8,37.7,11.3,40.8c-6.6,48.4-83.4,49-86.7,49l-579.9,12
				C793.2,1950.4,776,1951.2,760.7,1951.2z M786.7,1843.7c-4.6,0.6-32.4,4.1-42.1,5.9l0,0c-23.2,4.2-59.4,19.6-63.9,44.5
				c-2,11.3,1.2,16.4,3.8,19.3c13.1,14.5,55.7,19.2,126.6,13.9l0.6,0l580.4-12c0.8,0,61.5-1,65.4-30.2l0.1-0.5
				c0,0,2.1-13.4-6.5-23.3c-7.7-8.9-22.7-13.3-43.2-12.8c-3.3,0.1-7.1,0.4-11.2,0.8c-19.9,1.8-47.1,4.2-72.4-15.8
				c-5.8-4.6-11.5-9.6-17-14.5c-23.7-21-46.1-40.8-84.5-34.6c-1.7,0.3-3.4,0.5-5,0.7c-11.3,1.6-21,2.9-51.1,25
				c-5.1,4.2-55.1,43.5-122.9,15.6l-1-0.5l-73.7-39.2c-3.3-1.5-55.8-25.4-91.3-9.2c-7.7,3.5-19,11.3-29,28.3l-0.2,0.4
				C847.5,1807,823.8,1843.2,786.7,1843.7z"/>
		</g>
		<g>
			<path class="st1" d="M3162.5,4332.7c0,0-56.1,195.4-185.2,222.4c-159.9,33.4-209.4,114.5-213.4,134.6l636.1,0l-44.3-359.3
				L3162.5,4332.7z"/>
			<path d="M3412.4,4700.6h-661.7l2.6-13c4.3-21.3,54.4-108.1,221.9-143.1c121.1-25.3,176.4-212.9,177-214.8l2.2-7.8l211.1-2.5
				L3412.4,4700.6z M2780.2,4678.8h607.5l-41.6-337.4l-175.6,2.1c-5.3,16.1-19.1,54.7-42.8,95.7c-41.1,71.1-92.3,114.9-148.2,126.6
				C2851,4592.7,2796.7,4650.4,2780.2,4678.8z"/>
		</g>
		<g>
			<path class="st1" d="M2595.1,4332.7c0,0-56.1,195.4-185.2,222.4c-159.9,33.4-209.4,114.5-213.4,134.6l636.1,0l-44.3-359.3
				L2595.1,4332.7z"/>
			<path d="M2845,4700.6h-661.7l2.6-13c4.3-21.3,54.4-108.1,221.9-143.1c121.1-25.3,176.4-212.9,177-214.8l2.2-7.8l211.1-2.5
				L2845,4700.6z M2212.8,4678.8h607.5l-41.6-337.4l-175.6,2.1c-5.3,16.1-19.1,54.7-42.8,95.7c-41.1,71.1-92.3,114.9-148.2,126.6
				C2283.6,4592.7,2229.3,4650.4,2212.8,4678.8z"/>
		</g>
		<g>
			<path class="st1" d="M3407.7,2042.6c0,0,29.2,571.5-43.2,1029l53.5,1307.4c0,0-208.3,75.2-382.9,0l-67.7-1239.3l-89.4-1052.3
				L3407.7,2042.6z"/>
			<path d="M3212.5,4423.6c-58,0-121.6-8.6-181.8-34.6l-6.2-2.7l-0.4-6.7l-67.7-1239.3l-90.3-1062.8l551.9-46.6l0.6,11.2
				c0.3,5.7,28.3,577-43.2,1030.2l53.7,1314.3l-7.5,2.7C3415.9,4391.3,3324.6,4423.6,3212.5,4423.6z M3045.5,4371.6
				c148.9,60.8,323.2,11.7,361.2-0.4L3353.5,3071l0.2-1.1c65.8-416.1,47.2-933.1,43.6-1015.5l-507.7,42.9l88.5,1041.4L3045.5,4371.6
				z"/>
		</g>
		<g>
			<path class="st1" d="M3122.6,2087.4c0,0,60,268.5-33,580.4c-34.4,115.3-162.1,497.6-162.1,497.6l-53.3,1227.8
				c0,0-198.9,95.7-418.6,0l41.1-1389.5l86.7-916.2H3122.6z"/>
			<path d="M2662.4,4446.4c-61.8,0-135.2-10.2-211.2-43.3l-6.8-2.9l0.2-7.4l41.1-1389.8l0-0.4l87.7-926.1h557.8l1.9,8.5
				c0.6,2.7,59.6,274.8-33.2,585.9c-33,110.6-153,470.5-161.7,496.5l-53.5,1232.7l-5.9,2.8c-2.1,1-52.1,24.8-130,36.8
				C2724.2,4443.5,2694.9,4446.4,2662.4,4446.4z M2466.7,4386c189.1,79.1,363.2,14.1,396.9-0.1l53.1-1222.5l0.5-1.4
				c1.3-3.8,128-383.4,162-497.2c82-274.8,43.5-518.4,34.5-566.4h-520.3l-85.8,906L2466.7,4386z"/>
		</g>
		<g>
			<path class="st1" d="M2809.4,1053.3l-58.8-471c0,0-412.3,112.1-681.1,265.9c0,0-631.1-142.1-936.2-78.8
				c0,0,579.9,709.9,655.3,1365.2c0,0,546.9-84.9,682.6-47.2c0,0,147.7-134.2,298.8-146.2L2809.4,1053.3z"/>
			<path d="M1788.6,2145.5c-2.4,0-4.7-0.8-6.6-2.2c-2.4-1.8-3.9-4.5-4.2-7.4c-38.7-336.5-214-688-354.3-923.7
				c-152.2-255.8-297.2-434.1-298.6-435.8c-2.4-2.9-3.1-6.9-1.8-10.5c1.3-3.6,4.3-6.3,8.1-7c127.7-26.5,325-21.3,586.2,15.5
				c176.7,24.9,324.2,56.6,350.4,62.4c267-151.7,675.9-263.8,680-264.9c3-0.8,6.3-0.3,8.9,1.5c2.6,1.8,4.4,4.6,4.7,7.7l58.8,471
				c0.1,0.6,0.1,1.2,0.1,1.8l-39.4,888c-0.2,5.5-4.5,9.9-10,10.4c-75.8,6-151,44.6-200.8,75.8c-54.4,34.1-91.2,67.3-91.6,67.7
				c-2.8,2.5-6.6,3.4-10.2,2.4c-131.8-36.7-672.5,46.6-678,47.4C1789.7,2145.5,1789.2,2145.5,1788.6,2145.5z M1153.1,776.8
				c37.2,47.2,160.5,208.2,289,424c89.9,151.1,164.8,299.1,222.4,440c70.4,172.1,115.4,333.9,133.6,481.4
				c79.5-12,535.2-78.6,670.2-46.7c25.7-22.4,154.5-128.9,291.3-144.2l38.9-877.6l-57.2-457.5c-70,19.9-427.5,124.7-666.4,261.5
				c-2.4,1.4-5.1,1.8-7.8,1.2C2060.9,857.5,1458.5,723.3,1153.1,776.8z"/>
		</g>
		<g>
			<g>
				<path class="st1" d="M2797.1,430.5l-272.2,59c-8.5,44.2-46.7,269.3,32.4,343.2c58.4,54.6,154.9-0.7,154.9-0.7l29.8,193.9
					l193.1-34.1L2833.5,717L2797.1,430.5z"/>
				<path d="M2732.8,1038.5l-29.2-190.2c-10.6,4.8-26.4,11-44.7,15.1c-44.8,10-82.5,2.1-109.2-22.8c-83.6-78-44.3-307.9-35.6-353.2
					l1.4-7.1l290.9-63.1l37.8,297.1l105.6,285.9L2732.8,1038.5z M2720.4,814.6l30.5,198.6l169.3-29.9l-97.4-263.7l-35.1-276
					l-253.5,55c-8.5,47.4-41.7,258.8,30.4,326.1c51.8,48.4,141.1-1.7,142-2.2L2720.4,814.6z"/>
			</g>
			<g>
				<g>
					<path d="M2396.4,485.2c-7.6-58.3,76.6-74.8,76.6-74.8c-29.2-3.4-39.6-18.2-40-30.8c-2.2-71.7,145.8-40.6,145.8-40.6
						c-32-24.6,9.5-37.2,9.5-37.2c51.3-11.1,147.6,14.9,214.9,36.8c21.8-1.7,236-2.4,56.3,422.1c0,0-94.6-6.2-110-105.7
						c0,0,34.3-78.7-33.6-83.9c-12.9-1-25.3,6-31.5,17.4c-8.4,15.5-12.5,28.6-14.5,37.2c-1.6,6.7-7.1,11.8-13.9,12.6l0,0
						c-9,1.2-17.2-5.2-18.4-14.2l-7.7-58.7C2509.8,574.3,2401.8,526.5,2396.4,485.2z"/>
				</g>
			</g>
		</g>
		<g>
			<path class="st2" d="M2903.7,881.1c0,0-41.6,51.6-188.7,44.9l-283.4,113.9c-38.1,15.4-67.5,46.8-80.2,86l-109,418.6
				c0,0,135.7,97.9,254.1,158.5l77.4,283.6l-56,289.9c0,0,469.2,176.6,841,36.2l-156.2-1186.9l-41.1-95
				c-29.3-67.8-91.1-116.1-164-128.3L2903.7,881.1z"/>
		</g>
		<g>
			<path class="st1" d="M2440.9,1812.9c0,0,154.2,276.2,309.7,353.3l-9-162.9c0,0-169.8-153.3-221.4-325.3l-70.1-35.5L2440.9,1812.9
				z"/>
			<path d="M2762.5,2184.2l-16.8-8.3c-66.1-32.8-139.1-103-217.1-208.8c-57.7-78.3-96.9-148.2-97.3-148.9l-1.5-2.8l10.3-190.3
				l89.1,45.2l1.3,4.5c50.1,167,216.6,318.8,218.3,320.3l3.3,3L2762.5,2184.2z M2451.9,1810.3c15.8,27.6,149.8,256.4,286.7,337
				l-7.7-139c-24.6-22.9-170-163-219.8-322.7l-51-25.9L2451.9,1810.3z"/>
		</g>
		<g>
			<path class="st1" d="M2684.1,1274.3c0,0-98.1-289.6-293.2-207.2c0,0,88.3-90.7,205-93c116.6-2.3,190.9,177.5,190.9,177.5
				L2684.1,1274.3z"/>
			<path d="M2684.1,1285.1c-0.7,0-1.3-0.1-2-0.2c-3.9-0.7-7-3.5-8.3-7.2c-0.5-1.6-53.9-155.9-156.1-201.8
				c-38.5-17.3-79.8-16.9-122.5,1.2c-4.8,2-10.3,0.4-13.2-3.9c-2.9-4.3-2.4-10,1.2-13.7c3.7-3.8,92.8-93.9,212.5-96.3
				c51.4-1,102.6,30.9,148.1,92.3c33.6,45.2,52.2,90.1,53,92c1.5,3.7,0.9,8-1.7,11.1l-102.7,122.6
				C2690.4,1283.7,2687.3,1285.1,2684.1,1285.1z M2459.3,1041.4c23,0,45.5,4.9,67.3,14.7c46.8,21,89.3,63.6,126.3,126.7
				c16.5,28.2,28.1,54,34.7,70.2l86.4-103.2c-13.8-30.2-80.8-164.9-175.9-164.9c-0.7,0-1.3,0-2,0c-66,1.3-123.1,32.7-158.7,57.9
				C2444.8,1041.9,2452.1,1041.4,2459.3,1041.4z"/>
		</g>
		<g>
			<path class="st1" d="M3071,1079.5c0,0-6.5-113.8-153-190.2c0,0,177.6-43,264.1,182L3071,1079.5z"/>
			<path d="M3060.8,1091.1l-0.6-11c0-0.5-2-27.6-20.9-63.1c-17.5-33-53.7-80.2-126.2-118.1l-25.7-13.4l28.2-6.8
				c1.9-0.5,48-11.2,105.5,6.8c95.4,30,145.9,115.5,171.4,181.8l5.3,13.7L3060.8,1091.1z M2953.1,896.9
				c99.6,63.2,122.3,142.1,127.4,170.9l86-6.3c-34.4-81.7-85.2-133.8-151-154.9C2991.6,899,2969.8,896.9,2953.1,896.9z"/>
		</g>
		<g>
			<path class="st1" d="M1675,1353.7l-119.2-112.1c0,0-52.1,37.7,42.1,135.9c0,0-123.1-75-142-131.7c0,0-31.1,37.6,0,97.5
				c0,0-20.6,39.8,5.3,79.4c0,0-15.8,53.3,27.1,90.5c0,0-2.3,61,48.6,87.1c50.9,26.1,146.1,86.1,146.1,86.1l497.3,363.3
				c0,0,103.7,118.5,185.7,0c65.4-94.4,163.9-368.4,163.9-368.4l-276.2-135.7l-44.9,203.8l-390.1-131.4
				C1818.9,1618.1,1728.3,1404,1675,1353.7z"/>
			<path d="M2281.4,2113.4c-55.7,0-101.4-47.8-108.4-55.4l-496.1-362.4c-6.1-3.8-96.5-60.6-145-85.5c-47.9-24.6-53.8-75.4-54.5-92
				c-36.1-34.4-31-78.7-27.9-93.5c-20.2-34.6-10.6-68.2-5.6-81c-30-62.9,2.2-103.1,3.6-104.8c2.5-3.1,6.5-4.5,10.4-3.8
				c3.9,0.7,7.1,3.5,8.3,7.3c8.8,26.5,45.5,59.9,80.4,86.5c-12.1-21.5-17.4-41.2-15.8-59c2.2-24.7,16.9-36,18.6-37.2
				c4.2-3.1,10-2.7,13.9,0.9l119.2,112.1c0,0,0,0,0,0c50.6,47.7,130.7,231.5,144.5,263.6l373.9,126l42.3-191.9
				c0.7-3.3,2.9-6,5.9-7.5c3-1.5,6.5-1.4,9.5,0l276.2,135.7c5,2.4,7.3,8.2,5.4,13.5c-4,11.2-99.8,276.4-165.2,370.9
				c-25,36.1-54.6,55.3-88.2,57.2C2285,2113.3,2283.2,2113.4,2281.4,2113.4z M1455.9,1270.1c-4.4,14.7-6,38.1,9.6,68.2
				c1.6,3.1,1.6,6.9,0,10c-0.7,1.4-17.2,34.9,4.7,68.4c1.7,2.7,2.2,6,1.3,9c-0.5,1.9-13,47.2,23.8,79.2c2.5,2.2,3.9,5.3,3.8,8.6
				c-0.1,2.2-1.3,54.5,42.7,77c50.8,26.1,143.1,84.2,147,86.6c0.2,0.1,0.4,0.3,0.6,0.4l497.3,363.3c0.6,0.5,1.2,1,1.8,1.6
				c0.4,0.5,46.1,51.8,97.2,48.8c26.4-1.5,50.5-17.6,71.4-47.8c57.1-82.5,141.6-308.4,159.3-356.7l-254.9-125.3l-41.9,190.2
				c-0.7,3-2.6,5.6-5.3,7.1c-2.7,1.5-5.9,1.8-8.8,0.8l-390.1-131.4c-3-1-5.3-3.2-6.6-6.1c-0.9-2.1-90.3-212.6-141.3-260.8
				l-110.7-104.2c-2,3.6-3.8,8.6-4.3,15.3c-1.3,17.7,6.9,48.9,53.3,97.3c3.8,3.9,4.1,10.1,0.6,14.4c-3.4,4.3-9.5,5.3-14.2,2.5
				C1587.6,1384,1491.6,1325.1,1455.9,1270.1z"/>
		</g>
		<g>
			<path d="M1508.1,1418.2c-2.9,0-5.8-1.1-7.9-3.4c-1.5-1.6-37.3-39.5-53.5-65.7c-3.2-5.1-1.6-11.8,3.5-15c5.1-3.2,11.8-1.6,15,3.5
				c15.1,24.3,50.5,61.9,50.9,62.2c4.1,4.4,3.9,11.3-0.4,15.4C1513.4,1417.2,1510.7,1418.2,1508.1,1418.2z"/>
		</g>
		<g>
			<path d="M1514.2,1482.7c-1.8,0-3.6-0.5-5.3-1.4c-1.4-0.8-34.7-19.7-56.8-52.5c-3.4-5-2.1-11.8,2.9-15.1c5-3.4,11.8-2.1,15.1,2.9
				c19.2,28.4,49.2,45.5,49.4,45.7c5.2,3,7.1,9.6,4.1,14.8C1521.7,1480.7,1518,1482.7,1514.2,1482.7z"/>
		</g>
		<g>
			<path class="st1" d="M3417.9,2321.7c-95.2,118-380.1,228.3-566.1,154.2c-41.2-16.4-123.5-83.4-131.5-388.4
				c-5.4-206.8-60.6-618.9-54.2-825.6c0.7-21.5,4-48.5,18-73.5c16.1-28.7,46.2-54.8,102.7-66.9c70.3-15.2,224.1-48.1,339.2-61.9h0.1
				c0,0,0,0,0.1,0c57.8-6.9,105.7-8.9,128.5-1.4c68,22.5,120.5,232.2,136.1,317.1c9.4,51.3,19.9,127.7,30,205.3
				c10.9,84,21.2,169.2,29,225.1C3467.7,1933.5,3513.1,2203.7,3417.9,2321.7z"/>
			<path d="M2989.7,2510.9c-52.1,0-100.2-8.3-141.9-24.9c-33.5-13.4-61.8-44.1-84-91.5c-32.5-69.3-50.8-172.5-54.3-306.7
				c-2.3-86.7-13.3-209.2-24.9-338.9c-16.2-180.4-33-367-29.3-487.4c1-31.3,7.3-57,19.4-78.5c20.5-36.7,57.5-61,109.9-72.3
				c65.9-14.2,219.3-47.3,336.5-61.6l0,0l3.9-0.5c67.3-8,110.9-8.3,133.2-0.9c88,29,141.2,313.4,143.4,325.5
				c8,43.7,17.3,107.2,30.1,205.8c3.9,30.5,7.8,61.1,11.5,90.5c6.4,50.9,12.5,99,17.5,134.5c1,7.2,2.1,14.8,3.2,22.8
				c19.4,135.1,55.4,386.7-37.4,501.8l0,0c-48.9,60.7-146.4,119.2-254.2,152.7C3108.5,2501,3046.7,2510.9,2989.7,2510.9z
				 M3126.7,1070.4c-116.6,14-271.4,47.4-337.6,61.6c-46,9.9-78.1,30.6-95.5,61.6c-13.7,24.5-16.1,50.9-16.6,68.6
				c-3.7,119.1,13,305,29.2,484.8c11.7,130,22.7,252.9,25,340.2c7.6,289.2,81.3,361.3,124.6,378.5c82.7,32.9,192.8,31.1,309.9-5.3
				c104-32.3,197.4-88.1,243.8-145.6l8.5,6.8l-8.5-6.8c86.9-107.7,51.7-353.1,32.8-485c-1.1-8-2.2-15.6-3.3-22.8
				c-5-35.7-11.1-83.8-17.5-134.8c-3.7-29.3-7.6-60-11.5-90.4c-7.9-61-19.6-148.6-29.9-204.7c-20.1-109.6-72.9-290.2-128.8-308.7
				c-12.8-4.2-44-7.4-119.9,1.4l-0.5,0.5L3126.7,1070.4z"/>
		</g>
		<g>
			<path class="st1" d="M2786.8,1121.4c0,0,62-19.4,80.1,107.3c18.1,126.7,123.7,1085.6,123.7,1085.6s28.8,142.1-138.8,161.6
				L2786.8,1121.4z"/>
			<path d="M2853,2486.7l-2.5-21.6c50.6-5.9,87.1-23.8,108.7-53.4c30.7-42.1,20.7-94.6,20.6-95.1l-0.1-1
				c-1.1-9.6-105.8-960.2-123.6-1085.3c-8.6-60.3-27-83.8-40.9-92.9c-13.4-8.7-24.8-5.6-25.3-5.5l-6.4-20.8
				c0.8-0.3,20.8-6.3,42.7,7.6c26.2,16.5,43.5,53,51.4,108.6c17.8,124.4,120.9,1060.6,123.7,1085.6c1.2,6.5,10.6,63.4-24.3,111.5
				C2951.7,2459,2910,2480.1,2853,2486.7z"/>
		</g>
		<g>
			<path class="st1" d="M3039.1,1903.1c-31.8,6.2-54.3,34.6-53,67c3.9,102.4,15.5,311.6,45.9,337.3
				c40.4,34.2,482.1-42.4,513.2-110.8c23.1-50.8,1.5-238.1-11-330.8c-3.9-28.9-31.4-48.5-60-42.7
				C3383.5,1841.4,3223.4,1867.1,3039.1,1903.1z"/>
			<path d="M3083.5,2326.7c-45.6,0-54.9-7.9-58.5-11c-10.8-9.2-24.8-34.1-36.6-147c-7.2-68-11.1-145.3-13.1-198.2
				c-1.4-38,24.6-70.8,61.8-78.1l0,0c101.4-19.8,197.5-36.9,274.8-50.6c64.1-11.4,119.5-21.2,160.1-29.4
				c16.8-3.4,33.8,0.2,47.7,10.2c13.8,9.8,23,25,25.3,41.8c32.6,240.6,20.4,314.2,10.2,336.7c-18.5,40.7-143.4,74.2-216.2,90.6
				c-65.8,14.8-136.7,26.3-194.7,31.7C3118.9,2325.8,3099.1,2326.7,3083.5,2326.7z M3041.2,1913.8c-26.7,5.2-45.3,28.7-44.2,55.9
				c8.5,223.9,27.3,317,42,329.4c15.9,13.5,151.1,3.7,295.1-28.6c136-30.6,193.3-61.3,201.1-78.4c15.7-34.6,11.4-153-11.9-324.8
				c-1.5-11-7.3-20.6-16.3-27c-9-6.4-19.9-8.7-30.8-6.6c-40.9,8.2-96.4,18.1-160.6,29.5C3234.4,1877.7,3142.5,1894,3041.2,1913.8
				L3041.2,1913.8z"/>
		</g>
		<g>
			<path class="st1" d="M3426.7,1579l-6,1.3l-345.7,77.2c-40.4,9-80.2-17.3-87.6-58.1c-20.9-114.9-79.3-324.7-90.4-362.5
				c-19.4-66.4-71.4-80.4-71.4-80.4c-68-19.3-126.3,22.6-141.5,31.7c16.1-28.7,46.2-54.8,102.7-66.9
				c70.3-15.2,224.1-48.1,339.2-61.9h0.1c0,0,0,0,0.1,0c3.3-0.9,107.7-29.3,208.7,27.2c76.6,42.8,127.1,287.4,147.8,409
				C3489.2,1533.9,3464.6,1570.6,3426.7,1579z"/>
			<path d="M3058.9,1670.2c-16.3,0-32.2-4.8-46.1-14c-19.2-12.7-32-32.2-36.1-54.8c-21.1-115.8-80.1-327.3-90.1-361.3
				c-17.4-59.3-62-72.5-63.8-73c-57.9-16.5-109,15.6-128.3,27.6c-1.9,1.2-3.5,2.2-4.8,3l-34.9,20.7l19.8-35.4
				c20.5-36.7,57.5-61,109.9-72.3c66.5-14.3,222-47.9,339.6-62c14.6-3.9,116-27.6,216.1,28.4c36.4,20.4,69.1,79.7,99.9,181.3
				c24.8,81.7,42.6,173.1,53.3,235.3c7.5,44-20.7,86.1-64.3,95.9l-6,1.3l-345.7,77.2C3071.3,1669.6,3065.1,1670.2,3058.9,1670.2z
				 M2789.2,1140.6c12.6,0,25.8,1.6,39.4,5.5c2.2,0.6,58,16.5,78.9,87.9c10,34.3,69.4,246.8,90.7,363.6c3,16.7,12.5,31.1,26.7,40.5
				c14.2,9.4,31.2,12.6,47.8,8.8l351.6-78.5c32.3-7.2,53.2-38.4,47.6-71c-38.5-226-90.4-372.2-142.4-401.3
				c-88.3-49.4-180.1-31.1-197.6-26.9l-1.1,1.1l-4.2,0c-116.6,14-271.4,47.4-337.6,61.6c-17,3.7-32,8.8-45.2,15.3
				C2757.6,1143.3,2772.9,1140.6,2789.2,1140.6z"/>
		</g>
		<g>
			<path d="M1514.1,1546.9c-2.6,0-5.1-0.9-7.2-2.7l-25.8-22.8c-4.5-4-4.9-10.9-1-15.4c4-4.5,10.9-4.9,15.4-1l25.8,22.8
				c4.5,4,4.9,10.9,1,15.4C1520.1,1545.7,1517.1,1546.9,1514.1,1546.9z"/>
		</g>
		<g>
			<path d="M1637.8,1241.4c-1.2,0-2.5-0.3-3.6-1c-3.1-2-4.1-6.1-2.1-9.2c1.5-2.3,36.5-56.3,113.4-42.9c21.6,3.7,40.1,8.5,58.1,13.1
				c42.4,10.9,75.9,19.4,119.9,6.1c3.5-1.1,7.3,0.9,8.4,4.5c1.1,3.5-0.9,7.3-4.5,8.4c-47.6,14.5-84.5,5-127.1-5.9
				c-17.7-4.5-36-9.2-57-12.9c-67.9-11.8-98.5,34.9-99.8,36.9C1642.2,1240.3,1640,1241.4,1637.8,1241.4z"/>
		</g>
		<g>
			<path d="M1880.4,1157.6c-1.5,0-2.5,0-2.8,0c-3.7-0.1-6.6-3.2-6.5-6.9c0.1-3.7,3.1-6.6,6.9-6.5c0.7,0,73.6,1.7,115.2-37.9
				c15.4-14.6,30.8-33.1,45.7-51c28-33.6,57-68.3,88.7-81.5c26.2-10.9,58.9,5.8,93.5,23.6c33.7,17.2,68.5,35.1,101,31.3
				c3.6-0.4,7,2.2,7.4,5.9c0.4,3.7-2.2,7-5.9,7.4c-36.6,4.3-74.9-15.3-108.7-32.6c-31.8-16.3-61.8-31.6-82.3-23.1
				c-28.6,11.9-56.5,45.4-83.5,77.7c-15.2,18.2-30.9,37-46.8,52.1C1961.1,1155.4,1895,1157.6,1880.4,1157.6z"/>
		</g>
		<g>
			<path d="M1915,1296.7c-3.4,0-6.3-2.5-6.7-6c-0.4-3.7,2.3-7,5.9-7.4l71.1-7.8c3.6-0.4,7,2.2,7.4,5.9c0.4,3.7-2.3,7-5.9,7.4
				l-71.1,7.8C1915.4,1296.7,1915.2,1296.7,1915,1296.7z"/>
		</g>
		<g>
			<path d="M2110.5,1226.6c-3.2,0-6-2.3-6.6-5.6c-0.6-3.7,1.8-7.1,5.5-7.7l73-12.4c3.7-0.6,7.1,1.8,7.7,5.5c0.6,3.7-1.8,7.1-5.5,7.7
				l-73,12.4C2111.3,1226.6,2110.9,1226.6,2110.5,1226.6z"/>
		</g>
		<g>
			<path d="M1863,1519.9c-2,0-3.9-0.9-5.2-2.5c-2.3-2.9-1.8-7.1,1-9.4c3.2-2.6,79.2-62.9,145.2-67.2c124.5-8,163.1-37.3,190.6-88.6
				c1.8-3.3,5.8-4.5,9.1-2.7c3.3,1.7,4.5,5.8,2.7,9.1c-34.3,64-85.2,88.1-201.5,95.6c-61.7,4-136.9,63.6-137.7,64.2
				C1866,1519.4,1864.5,1519.9,1863,1519.9z"/>
		</g>
		<g>
			<path class="st3" d="M1882.7,560.3c0-129.7-106.7-234.6-237.1-231.6c-122.1,2.8-222.1,101.9-226,224
				c-1.4,42.7,8.8,82.8,27.6,117.6h0l178.4,365.8c10.3,21.2,40.5,21.2,50.8,0l178.4-365.8h0C1872.6,637.6,1882.7,600.1,1882.7,560.3
				z M1651.1,662.7c-62.8,0-113.7-50.9-113.7-113.7s50.9-113.7,113.7-113.7c62.8,0,113.7,50.9,113.7,113.7
				S1713.9,662.7,1651.1,662.7z"/>
			<path d="M1651.1,1063c-15.1,0-28.6-8.4-35.2-22l-178.3-365.6c-20.2-37.5-30.2-80-28.8-123c4.1-128.5,108-231.5,236.6-234.5
				c65.9-1.6,128.1,23,175.2,69c47.1,46,73,107.6,73,173.5c0,40.1-10,79.9-29,115L1686.3,1041
				C1679.7,1054.5,1666.2,1063,1651.1,1063z M1651.1,339.6c-1.8,0-3.5,0-5.3,0.1c-56.3,1.3-109.5,24.1-149.9,64.1
				c-40.4,40-63.6,93.1-65.4,149.3c-1.3,39.2,7.9,77.9,26.3,112.1c0.1,0.1,0.1,0.3,0.2,0.4l178.4,365.8c3,6.1,8.8,9.8,15.6,9.8
				c6.8,0,12.6-3.7,15.6-9.8l178.4-365.8c0.1-0.1,0.1-0.3,0.2-0.4c17.3-32,26.5-68.3,26.5-104.9c0-59.9-23.6-116-66.5-157.9
				C1763.7,361.8,1709.1,339.6,1651.1,339.6z M1651.1,673.6c-68.7,0-124.6-55.9-124.6-124.6s55.9-124.6,124.6-124.6
				c68.7,0,124.6,55.9,124.6,124.6S1719.8,673.6,1651.1,673.6z M1651.1,446.2c-56.7,0-102.8,46.1-102.8,102.8
				c0,56.7,46.1,102.8,102.8,102.8c56.7,0,102.8-46.1,102.8-102.8C1753.9,492.3,1707.7,446.2,1651.1,446.2z"/>
		</g>
		<g>
			<rect x="895.4" y="4678.8" width="3277" height="21.8"/>
		</g>
		<g>
			<path d="M2031.8,1591.7c-2.5,0-4.8-1.4-6-3.7c-1.6-3.3-0.3-7.3,3-9c3.9-1.9,96.4-47.5,157.3-22.9c3.4,1.4,5.1,5.3,3.7,8.7
				c-1.4,3.4-5.3,5.1-8.7,3.7c-55.2-22.3-145.3,22-146.2,22.4C2033.8,1591.5,2032.8,1591.7,2031.8,1591.7z"/>
		</g>
		<g>
			<path d="M2290,941.6c-3.2,0-6-2.2-6.6-5.5c-0.7-3.6,1.7-7.1,5.4-7.8l47.6-9c3.7-0.7,7.1,1.7,7.8,5.4s-1.7,7.1-5.4,7.8l-47.6,9
				C2290.8,941.6,2290.4,941.6,2290,941.6z"/>
		</g>
		<g>
			<path d="M1833.6,1002.8c-3.3,0-6.1-2.4-6.6-5.7c-0.5-3.7,2-7.1,5.7-7.6l91.8-13.4c3.6-0.5,7.1,2,7.6,5.7c0.5,3.7-2,7.1-5.7,7.6
				l-91.8,13.4C1834.2,1002.8,1833.9,1002.8,1833.6,1002.8z"/>
		</g>
		<g>
			<path d="M2074.8,916.6c-3.2,0-6-2.3-6.6-5.5c-0.7-3.6,1.8-7.1,5.4-7.8l35.2-6.4c3.7-0.7,7.1,1.8,7.8,5.4c0.7,3.6-1.8,7.1-5.4,7.8
				l-35.2,6.4C2075.6,916.6,2075.2,916.6,2074.8,916.6z"/>
		</g>
		<g>
			<path d="M2214.3,1441.4c-45,0-83-11.8-85.2-12.6c-3.5-1.1-5.5-4.9-4.4-8.4c1.1-3.5,4.9-5.5,8.4-4.4c0.8,0.2,76.5,23.8,138,3.8
				c3.5-1.1,7.3,0.8,8.4,4.3c1.1,3.5-0.8,7.3-4.3,8.4C2255.2,1439.1,2234.1,1441.4,2214.3,1441.4z"/>
		</g>
		<g>
			<rect x="2478.4" y="1599.6" transform="matrix(0.3747 -0.9272 0.9272 0.3747 106.9259 3379.4851)" width="160.6" height="21.8"/>
		</g>
		<g>
			<path d="M2299.9,1794.4c-1.3,0-2.5-0.2-3.8-0.7l-90.8-33.9c-5.6-2.1-8.5-8.4-6.4-14c2.1-5.6,8.4-8.5,14-6.4l90.8,33.9
				c5.6,2.1,8.5,8.4,6.4,14C2308.5,1791.7,2304.3,1794.4,2299.9,1794.4z"/>
		</g>
		<g>
			<path d="M3076.7,2030.8c-5.4,0-10.1-4-10.8-9.5c-0.7-6,3.5-11.4,9.4-12.2c2-0.3,201.1-25.6,386-78.9c5.8-1.7,11.8,1.7,13.5,7.5
				c1.7,5.8-1.7,11.8-7.4,13.5c-186.6,53.8-387.3,79.4-389.4,79.6C3077.6,2030.8,3077.1,2030.8,3076.7,2030.8z"/>
		</g>
		<g>
			<g>
				<path class="st3" d="M1781.2,4689.9h-193.1c-3.4-40.1-47.5-98.4-47.5-98.4c84.8-5.7,141.4,45.2,141.4,45.2
					c1-113.3,82.8-166.6,82.8-166.6c-31.8,75.8,6.7,160.9,6.7,160.9c48.6-91.8,155.2-123.3,155.2-123.3
					c-63.3,64.7-57.7,138.1-57.7,138.1c43.2-43.9,111.9-33.9,111.9-33.9c-41.9,27.1-53.1,77.9-53.1,77.9H1781.2z"/>
				<path d="M1927.9,4700.8h-339.7c-5.7,0-10.4-4.3-10.9-10c-2.6-30.3-33.6-77.2-45.4-92.7c-2.4-3.2-2.9-7.5-1.2-11.1
					c1.7-3.6,5.2-6.1,9.2-6.3c61.5-4.1,108.5,19.6,132.3,35.3c9.8-103.6,83.3-152.7,86.7-154.8c4-2.6,9.3-2.3,12.9,0.8
					c3.7,3.1,4.9,8.2,3.1,12.6c-20.5,48.9-9.6,102.7-0.9,131.4c53.5-79.3,145.4-107.3,149.6-108.5c4.7-1.4,9.9,0.6,12.4,4.8
					c2.6,4.3,1.9,9.7-1.6,13.2c-38,38.8-49.7,81.2-53.2,106.6c44.7-28.6,98.7-21.2,101.3-20.8c4.5,0.7,8.1,4,9.1,8.5
					c1,4.4-0.9,9-4.7,11.5c-37.5,24.3-48.3,70.7-48.4,71.2C1937.4,4697.2,1933,4700.8,1927.9,4700.8z M1597.5,4679h322.1
					c4-12.4,13.4-36.1,32.4-56.7c-22,1.6-52.8,8.3-75.3,31.1c-3,3-7.5,4.1-11.5,2.6c-4-1.5-6.8-5.1-7.1-9.4
					c-0.2-2.7-3.8-55.7,33.2-112.3c-34,17.2-82.4,49.3-110.2,101.8c-1.9,3.7-5.8,5.9-10,5.8c-4.2-0.1-7.9-2.6-9.6-6.4
					c-1.4-3.1-29-65.3-17.6-132.3c-22.3,24.6-50.5,68.5-51.1,133.6c0,4.3-2.6,8.1-6.5,9.9c-3.9,1.7-8.5,1-11.7-1.9
					c-0.5-0.4-45.6-39.9-113.5-42.7C1573.6,4620.9,1591.8,4651.9,1597.5,4679z"/>
			</g>
			<g>
				<path class="st3" d="M3616.4,4689.9c0,0-49.2-75.6-120.7-77.3c0,0,94.7-32.8,152.8,32.3c0,0,25.8-122.3,121.8-118
					c0,0-68.1,80.8-65.3,162.9H3616.4z"/>
				<path d="M3705.1,4700.8h-88.7c-3.7,0-7.1-1.9-9.1-4.9l0,0c-0.5-0.7-47.1-70.8-111.8-72.4c-5.3-0.1-9.7-4-10.5-9.2
					c-0.8-5.2,2.2-10.2,7.2-12c1-0.4,25.8-8.8,58.2-8.8c36.5,0,68.3,10.6,92.8,31.1c12.2-35.9,47.6-112.2,127.7-108.5
					c4.1,0.2,7.8,2.7,9.5,6.5c1.7,3.8,1,8.2-1.6,11.4c-0.7,0.8-65.3,78.7-62.7,155.6c0.1,3-1,5.8-3.1,7.9
					C3710.9,4699.6,3708,4700.8,3705.1,4700.8z M3622,4679h72.2c2.1-57.4,33.7-111.5,53.1-139.5c-25.4,5.3-47,22-64.3,50
					c-17.4,28.1-23.8,57.4-23.8,57.6c-0.9,4-3.9,7.2-7.9,8.3c-4,1.1-8.2-0.2-10.9-3.3c-26.6-29.8-62.4-36.9-91.3-36.8
					C3586.9,4634,3613,4666.5,3622,4679z"/>
			</g>
			<g>
				<polygon class="st1" points="3861.2,4689.7 4023.2,4552.7 4158.9,4516.2 4411,4568.9 4509.1,4689.7 				"/>
				<path d="M4532,4700.6h-700.6l186.5-157.8l140.6-37.8l258.4,54L4532,4700.6z M3890.9,4678.8h595.3l-81.2-100.1l-245.8-51.4
					l-130.9,35.2L3890.9,4678.8z"/>
			</g>
			<g>
				
					<rect x="4065.9" y="4525.6" transform="matrix(0.5985 -0.8011 0.8011 0.5985 -2042.4948 5110.0029)" width="21.8" height="134.1"/>
			</g>
			<g>
				<polygon points="4141.4,4689.7 4119.6,4689.7 4119.6,4631.5 4148.3,4513.6 4169.5,4518.8 4141.4,4634.1 				"/>
			</g>
		</g>
	</g>
</g>
</svg>
